<svg width="13" height="15" viewBox="0 0 13 15" fill="none" xmlns="http://www.w3.org/2000/svg">
<path d="M4.53619 2.97423C4.53619 2.56937 4.86439 2.24116 5.26926 2.24116H11.8697C12.2746 2.24116 12.6028 2.56937 12.6028 2.97423V13.4411C12.6028 13.846 12.2746 14.1742 11.8697 14.1742H5.26926C4.86439 14.1742 4.53619 13.846 4.53619 13.4411V2.97423Z" fill="white"/>
<path fill-rule="evenodd" clip-rule="evenodd" d="M8.82188 1.05277C8.82188 0.647909 8.49365 0.319702 8.08881 0.319702H1.48835C1.08349 0.319702 0.75528 0.647909 0.75528 1.05277V11.5197C0.75528 11.9245 1.08349 12.2527 1.48835 12.2527H4.15372V2.60518C4.15372 2.20032 4.48191 1.87211 4.88679 1.87211H8.82188V1.05277Z" fill="white"/>
</svg>
